<mxfile host="app.diagrams.net" modified="2024-02-24T09:13:01.047Z" agent="Mozilla/5.0 (Windows NT 10.0; Win64; x64) AppleWebKit/537.36 (KHTML, like Gecko) Chrome/121.0.0.0 Safari/537.36 Edg/121.0.0.0" etag="Q86aq629ABcZdT6z4Ay7" version="23.1.6" type="device">
  <diagram name="Page-1" id="9zbH0cF-_lzCxYYPnGsm">
    <mxGraphModel dx="746" dy="1675" grid="1" gridSize="10" guides="1" tooltips="1" connect="1" arrows="1" fold="1" page="1" pageScale="1" pageWidth="827" pageHeight="1169" math="0" shadow="0">
      <root>
        <mxCell id="0" />
        <mxCell id="1" parent="0" />
        <mxCell id="8yPJM3-9GtNO9Ezl7pGL-7" value="" style="edgeStyle=orthogonalEdgeStyle;rounded=0;orthogonalLoop=1;jettySize=auto;html=1;" edge="1" parent="1" source="8yPJM3-9GtNO9Ezl7pGL-1" target="8yPJM3-9GtNO9Ezl7pGL-2">
          <mxGeometry relative="1" as="geometry" />
        </mxCell>
        <mxCell id="8yPJM3-9GtNO9Ezl7pGL-1" value="GUI" style="rounded=1;whiteSpace=wrap;html=1;fillColor=#dae8fc;strokeColor=#6c8ebf;" vertex="1" parent="1">
          <mxGeometry x="890" y="40" width="120" height="60" as="geometry" />
        </mxCell>
        <mxCell id="8yPJM3-9GtNO9Ezl7pGL-8" value="" style="edgeStyle=orthogonalEdgeStyle;rounded=0;orthogonalLoop=1;jettySize=auto;html=1;" edge="1" parent="1" source="8yPJM3-9GtNO9Ezl7pGL-2" target="8yPJM3-9GtNO9Ezl7pGL-5">
          <mxGeometry relative="1" as="geometry" />
        </mxCell>
        <mxCell id="8yPJM3-9GtNO9Ezl7pGL-2" value="Buttons" style="rounded=1;whiteSpace=wrap;html=1;fillColor=#dae8fc;strokeColor=#6c8ebf;" vertex="1" parent="1">
          <mxGeometry x="890" y="180" width="120" height="60" as="geometry" />
        </mxCell>
        <mxCell id="8yPJM3-9GtNO9Ezl7pGL-4" value="Encoding (hiding information)" style="rounded=1;whiteSpace=wrap;html=1;fillColor=#e1d5e7;strokeColor=#9673a6;" vertex="1" parent="1">
          <mxGeometry x="690" y="320" width="120" height="60" as="geometry" />
        </mxCell>
        <mxCell id="8yPJM3-9GtNO9Ezl7pGL-5" value="Decoding(fetching out the information)" style="rounded=1;whiteSpace=wrap;html=1;fillColor=#e1d5e7;strokeColor=#9673a6;" vertex="1" parent="1">
          <mxGeometry x="890" y="320" width="120" height="60" as="geometry" />
        </mxCell>
        <mxCell id="8yPJM3-9GtNO9Ezl7pGL-6" value="Image Information(size,byte&lt;br&gt;space)" style="rounded=1;whiteSpace=wrap;html=1;fillColor=#e1d5e7;strokeColor=#9673a6;" vertex="1" parent="1">
          <mxGeometry x="1080" y="320" width="120" height="60" as="geometry" />
        </mxCell>
        <mxCell id="8yPJM3-9GtNO9Ezl7pGL-9" value="" style="endArrow=none;html=1;rounded=0;" edge="1" parent="1" source="8yPJM3-9GtNO9Ezl7pGL-4">
          <mxGeometry width="50" height="50" relative="1" as="geometry">
            <mxPoint x="850" y="280" as="sourcePoint" />
            <mxPoint x="890" y="230" as="targetPoint" />
          </mxGeometry>
        </mxCell>
        <mxCell id="8yPJM3-9GtNO9Ezl7pGL-11" value="" style="endArrow=none;html=1;rounded=0;exitX=0.439;exitY=0.039;exitDx=0;exitDy=0;exitPerimeter=0;" edge="1" parent="1" source="8yPJM3-9GtNO9Ezl7pGL-6">
          <mxGeometry width="50" height="50" relative="1" as="geometry">
            <mxPoint x="960" y="330" as="sourcePoint" />
            <mxPoint x="1010" y="230" as="targetPoint" />
          </mxGeometry>
        </mxCell>
        <mxCell id="8yPJM3-9GtNO9Ezl7pGL-14" value="" style="edgeStyle=orthogonalEdgeStyle;rounded=0;orthogonalLoop=1;jettySize=auto;html=1;" edge="1" parent="1" source="8yPJM3-9GtNO9Ezl7pGL-13" target="8yPJM3-9GtNO9Ezl7pGL-1">
          <mxGeometry relative="1" as="geometry" />
        </mxCell>
        <mxCell id="8yPJM3-9GtNO9Ezl7pGL-13" value="USER" style="ellipse;whiteSpace=wrap;html=1;fillColor=#f8cecc;strokeColor=#b85450;" vertex="1" parent="1">
          <mxGeometry x="890" y="-70" width="120" height="80" as="geometry" />
        </mxCell>
      </root>
    </mxGraphModel>
  </diagram>
</mxfile>
